<svg xmlns="http://www.w3.org/2000/svg" width="458" height="396" viewBox="0 0 458 396" fill="none"><g clip-path="url(#a)"><ellipse cx="210.433" cy="289.242" rx="146.065" ry="146.477" fill="#0F90E1"/><path d="M293.534 382.243c-7.189 2.035-14.669-2.145-16.703-9.338l-10.738-37.951c-2.035-7.19 2.144-14.67 9.337-16.705 7.19-2.035 14.669 2.144 16.704 9.338l10.738 37.95c2.034 7.191-2.148 14.671-9.338 16.706z" fill="#fff"/><path d="M278.212 381.924c-5.335-5.233-5.419-13.801-.187-19.136l27.612-28.159c5.232-5.336 13.8-5.419 19.135-.187 5.335 5.233 5.419 13.801.187 19.136l-27.612 28.159c-5.232 5.336-13.8 5.419-19.135.187z" fill="#fff"/><path d="m267.555 305.076-11.231-.441a2.28 2.28 0 0 1-2.192-2.373l1.091-27.766 15.796.621-1.091 27.766a2.286 2.286 0 0 1-2.373 2.193z" fill="#FBC438"/><path d="M265.149 272.479c10.467-2.963 17.104-11.901 14.822-19.964-2.282-8.063-12.617-12.197-23.085-9.234-10.467 2.962-17.104 11.9-14.822 19.963s12.617 12.197 23.085 9.235z" fill="#292929"/><path d="M275.167 268.377c9.53-1.619 16.401-7.961 15.348-14.164-1.054-6.203-9.634-9.919-19.164-8.299-9.53 1.619-16.401 7.96-15.347 14.163 1.054 6.203 9.633 9.919 19.163 8.3z" fill="#292929"/><path d="M271.248 259.27c7.097-6.562 9.39-15.627 5.119-20.247-4.27-4.62-13.486-3.046-20.584 3.516-7.098 6.562-9.39 15.627-5.12 20.247 4.271 4.62 13.487 3.046 20.585-3.516z" fill="#292929"/><path d="M280.173 270.339c1.555 8.713-3.004 16.817-10.184 18.099-7.177 1.282-14.26-4.746-15.815-13.459l-1.224-6.859c-1.555-8.713 3.004-16.818 10.181-18.1 7.18-1.281 14.263 4.747 15.818 13.46l1.224 6.859z" fill="#FBC438"/><path d="M264.837 248.984c-3.97-3.594-10.882-1.855-15.435 3.883-4.553 5.738-5.026 13.305-1.056 16.898 3.97 3.594 10.883 1.855 15.435-3.883 4.553-5.738 5.026-13.302 1.056-16.898z" fill="#292929"/><path d="m268.076 282.832-4.247-.003a6.892 6.892 0 0 1-4.629-1.78l-2.66-2.399a.516.516 0 0 1 .689-.767l2.66 2.399a5.86 5.86 0 0 0 3.94 1.517l4.247.003a.514.514 0 1 1 0 1.03z" fill="#201028"/><path d="m268.076 283.348-1.722-.004a1.032 1.032 0 0 1 0-2.064l1.722.003a1.033 1.033 0 0 1 0 2.065z" fill="#FFD2D4"/><path d="M262.354 276.248a8.636 8.636 0 1 0-16.241-5.88 8.636 8.636 0 0 0 16.241 5.88z" fill="#292929"/><path d="M259.714 273.523c.16-4.067-2.725-7.483-6.444-7.629-3.719-.147-6.863 3.032-7.023 7.1-.16 4.067 2.725 7.483 6.444 7.629 3.718.146 6.863-3.032 7.023-7.1z" fill="#4D9DE8"/><path d="M254.035 273.291c-.064 1.649-1.152 2.944-2.431 2.895-1.278-.051-2.263-1.426-2.195-3.075.064-1.648 1.152-2.943 2.43-2.895 1.275.052 2.261 1.43 2.196 3.075z" fill="#E0EEF7"/><path d="m275.105 393.857-41.302 1.166c-6.887-.271-12.248-6.073-11.978-12.961l2.608-69.126a8.587 8.587 0 0 1 5.976-7.847l30.793-9.805 24.615 11.798a8.59 8.59 0 0 1 4.871 8.085l-2.624 66.715c-.27 6.884-6.072 12.246-12.959 11.975z" fill="#fff"/><path d="M290.688 315.164c.142 7.21.058 14.409-.061 21.606-.093 7.2-.351 14.39-.608 21.584-.306 7.19-.615 14.38-1.085 21.564-.107 1.745-.194 3.713-.854 5.5-.624 1.787-1.622 3.439-2.946 4.765-2.653 2.641-6.426 4.067-10.029 3.674 3.609-.077 7.064-1.694 9.289-4.36a11.707 11.707 0 0 0 2.45-4.482c.505-1.642.493-3.326.509-5.165.096-7.2.351-14.39.611-21.583.31-7.191.619-14.381 1.089-21.564.444-7.181.927-14.365 1.635-21.539z" fill="#F0F0F0"/><path d="m272.507 308.36-22.293-1.439.969-15.018a1.216 1.216 0 0 1 1.294-1.137l19.859 1.282a1.216 1.216 0 0 1 1.137 1.294l-.966 15.018z" fill="#fff"/><path d="M264.11 389.459h102.164c2.849 0 3.728-2.309 3.728-5.162H258.945a5.162 5.162 0 0 0 5.165 5.162z" fill="#292929"/><path d="M258.182 384.297h36.215c0 2.853-2.624 5.162-5.86 5.162h-30.506c-3.339-.049-3.188-5.162.151-5.162z" fill="#292929"/><path d="M296.659 385.801h73.345a4.533 4.533 0 0 0 4.452-3.69l9.885-42.424a4.536 4.536 0 0 0-4.456-5.384h-73.338a4.537 4.537 0 0 0-4.457 3.691l-9.884 42.423c-.531 2.795 1.61 5.384 4.453 5.384z" fill="#292929"/><path d="M302.086 337.994a4.505 4.505 0 0 1 1.809-2.834c1.372.992 2.158 2.711 1.81 4.527l-9.885 42.424a4.503 4.503 0 0 1-1.806 2.83 4.525 4.525 0 0 1-1.813-4.524l9.885-42.423zM269.116 385.72h-3.609a1.287 1.287 0 1 1 0-2.576h3.609a1.287 1.287 0 1 1 0 2.576zM276.161 385.72h-3.609a1.287 1.287 0 1 1 0-2.576h3.609a1.288 1.288 0 1 1 0 2.576zM283.209 385.72h-3.61a1.287 1.287 0 1 1 0-2.576h3.61a1.288 1.288 0 1 1 0 2.576zM290.253 385.72h-3.609a1.288 1.288 0 1 1 0-2.576h3.609a1.287 1.287 0 1 1 0 2.576zM424.682 395.364H116.068a3.092 3.092 0 0 1-3.094-3.094 3.093 3.093 0 0 1 3.094-3.095h308.614a3.093 3.093 0 0 1 3.094 3.095 3.096 3.096 0 0 1-3.094 3.094z" fill="#292929"/><path d="M156.546 338.744c1.098 3.639.876 6.923-.502 7.338-1.375.416-3.381-2.196-4.482-5.834-.01-.036-.023-.074-.032-.11-.931-3.239 3.96-4.717 4.981-1.504l.035.11z" fill="#fff"/><path d="M163.069 346.871c-3.638 1.098-6.922.876-7.338-.502-.415-1.375 2.196-3.381 5.834-4.482l.11-.033c3.239-.93 4.717 3.961 1.504 4.982a1.18 1.18 0 0 1-.11.035z" fill="#fff"/><path d="M150.628 350.629c3.638-1.098 6.25-3.104 5.834-4.482-.415-1.375-3.699-1.601-7.337-.503-.036.01-.074.023-.11.032-3.213 1.018-1.735 5.912 1.504 4.982a.647.647 0 0 0 .109-.029z" fill="#fff"/><path d="M156.752 354.763c1.024-3.657.728-6.939-.653-7.325-1.385-.386-3.336 2.267-4.357 5.925l-.029.109c-.863 3.259 4.06 4.634 5.01 1.401a.902.902 0 0 1 .029-.11z" fill="#fff"/><path d="M160.262 353.704c-2.879-2.483-4.45-5.374-3.51-6.463.937-1.088 4.031.042 6.91 2.522.029.025.058.048.087.074 2.524 2.234-.815 6.108-3.397 3.941-.032-.026-.061-.048-.09-.074z" fill="#fff"/><path d="M157.757 346.559a1.781 1.781 0 0 1-1.189 2.218 1.781 1.781 0 0 1-2.218-1.188 1.782 1.782 0 0 1 1.188-2.218 1.777 1.777 0 0 1 2.219 1.188z" fill="#FD7979"/><path d="M155.558 359.191c4.726 3.722 7.415 8.188 6.004 9.978-1.407 1.787-6.381.219-11.104-3.503-4.727-3.722-6.005-9.979-6.005-9.979s6.378-.222 11.105 3.504z" fill="#05A298"/><path d="M172.152 364.826c-4.987 4.685-10.467 6.952-12.238 5.065-1.771-1.887.834-7.213 5.821-11.898s12.238-5.065 12.238-5.065-.834 7.213-5.821 11.898z" fill="#05A298"/><path d="M168.485 390.209h-16.318l-2.855-20.531h22.029l-2.856 20.531z" fill="#292929"/><path d="M172.883 374.943h-25.114a.474.474 0 0 1-.473-.473v-6.688c0-.261.212-.474.473-.474h25.114c.261 0 .473.213.473.474v6.688c0 .26-.212.473-.473.473z" fill="#292929"/><path d="M376.899 153.137h66.129c8.265 0 14.968 6.701 14.968 14.97v34.113c0 8.269-6.7 14.969-14.968 14.969h-43.24l-15.555 13.724v-13.724h-7.334c-8.265 0-14.969-6.7-14.969-14.969v-34.113c0-8.266 6.704-14.97 14.969-14.97z" fill="#FBC438"/><path d="M386.519 174.251h46.889a1.878 1.878 0 0 0 0-3.755h-46.889a1.877 1.877 0 0 0 0 3.755zM386.519 186.754h46.889a1.878 1.878 0 0 0 0-3.755h-46.889a1.877 1.877 0 0 0 0 3.755zM426.534 199.26h6.877a1.877 1.877 0 1 0 0-3.754h-6.877a1.877 1.877 0 1 0 0 3.754zM410.902 199.26h6.877a1.877 1.877 0 1 0 0-3.754h-6.877a1.877 1.877 0 1 0 0 3.754zM386.519 199.26h15.632a1.877 1.877 0 0 0 0-3.754h-15.632a1.877 1.877 0 1 0 0 3.754zM368.534 221.259h-50.62a9.015 9.015 0 0 0-9.015 9.016v29.193c0 4.755 3.686 8.642 8.355 8.98l-10.438 17.105 27.509-17.073h34.209a9.014 9.014 0 0 0 9.015-9.016v-29.192c0-4.978-4.037-9.013-9.015-9.013z" fill="#fff"/><path d="M347.458 242.026a5.992 5.992 0 1 0-8.474-8.474 5.992 5.992 0 0 0 8.474 8.474zM357.391 257.948h-28.33a9.079 9.079 0 0 1 9.079-9.08h10.171a9.08 9.08 0 0 1 9.08 9.08z" fill="#FBC438"/><circle cx="87.061" cy="296.669" r="86.236" fill="#FBC438" style="mix-blend-mode:multiply"/><path d="M268.821 357.201s-33.155 6.961-39.287-3.354a5.108 5.108 0 0 1-.699-2.253c-5.529 1.695-13.739 6.126-20.317 17.639 14.697 13.12 45.385 1.458 53.749-2.092a5.747 5.747 0 0 1 4.313-.082c2.826 1.081 7.732 2.796 10.522 2.824 4.084.04 7.521 14.974 14.685 11.713.005-.004-1.548-25.242-22.966-24.395z" fill="#FBC438"/><path d="M206.097 373.597c-6.903-2.866-10.174-10.787-7.305-17.687l15.126-36.425c2.865-6.903 10.786-10.175 17.686-7.306 6.903 2.866 10.174 10.787 7.305 17.688l-15.126 36.424c-2.866 6.9-10.786 10.172-17.686 7.306z" fill="#fff"/><path d="M231.604 312.176c2.417.783 4.62 2.335 6.252 4.392a13.99 13.99 0 0 1 2.846 7.31c.358 2.65-.495 5.474-1.468 7.753l-2.856 7.03c-1.96 4.662-3.924 9.321-6.037 13.92l-3.174 6.897c-1.127 2.27-2.19 4.566-3.378 6.81.754-2.425 1.633-4.798 2.444-7.2l2.643-7.116c1.768-4.743 3.681-9.425 5.599-14.104l2.963-6.984c.505-1.194 1.03-2.247 1.281-3.397.28-1.143.444-2.328.409-3.519-.071-4.782-2.994-9.48-7.524-11.792z" fill="#F0F0F0"/><path d="M198.599 361.429c.119-7.474 6.272-13.437 13.745-13.318l39.431.622c7.473.119 13.436 6.272 13.317 13.746-.119 7.473-6.272 13.437-13.745 13.318l-39.432-.622c-7.473-.119-13.435-6.272-13.316-13.746z" fill="#fff"/><path d="M212.34 348.111c5.065-.344 10.123-.464 15.181-.55 5.058-.11 10.116-.055 15.175-.004l7.582.174c2.479.016 5.409.354 7.698 1.739a14.029 14.029 0 0 1 5.574 5.522c1.236 2.319 1.783 4.956 1.535 7.487-.318-5.078-3.464-9.628-7.823-11.589-1.079-.506-2.229-.828-3.388-1.027-1.155-.226-2.331-.168-3.628-.177l-7.586-.065c-5.055-.106-10.113-.212-15.165-.479-5.051-.248-10.103-.525-15.155-1.031z" fill="#F0F0F0"/></g><path d="m218.223 108.54 6.651 7.136 50.707-21.152-57.358 14.016z" fill="#0F90E1"/><path d="m220.586 84.998-5.007 7.554 3.385 7.406-7.596 1.292-6.712 14.738 72.55-21.956-56.62-9.034z" fill="#4D9DE8"/><path d="m218.964 99.959-3.385-7.407 39.297 1.84-35.912 5.567zM232.285 227.762c-1.003 0-2.006-.005-3.008-.019a1.822 1.822 0 0 1-1.806-1.844c.01-1.007.884-1.924 1.844-1.806 4.728.053 9.423-.019 14.569-.237h.076a1.826 1.826 0 0 1 .076 3.65c-4.115.175-7.964.256-11.751.256zm-17.634-.717c-.053 0-.11 0-.162-.005a165.497 165.497 0 0 1-14.707-1.915 1.826 1.826 0 0 1-1.478-2.12c.181-.988 1.131-1.62 2.119-1.478 4.619.822 9.457 1.454 14.38 1.877a1.824 1.824 0 0 1-.152 3.641zm-28.816-5.271c-.176 0-.356-.028-.537-.085a105.963 105.963 0 0 1-13.918-5.351 1.822 1.822 0 0 1-.874-2.429 1.82 1.82 0 0 1 2.428-.874 103.022 103.022 0 0 0 13.438 5.166 1.823 1.823 0 0 1 1.212 2.281 1.833 1.833 0 0 1-1.749 1.292zm-26.444-12.455c-.347 0-.698-.1-1.012-.305a96.57 96.57 0 0 1-11.746-9.228 1.83 1.83 0 0 1-.11-2.581 1.83 1.83 0 0 1 2.58-.109 93.616 93.616 0 0 0 11.3 8.877 1.827 1.827 0 0 1 .504 2.533 1.806 1.806 0 0 1-1.516.813zm-21.516-19.775a1.822 1.822 0 0 1-1.43-.684 97.761 97.761 0 0 1-8.383-12.375 1.824 1.824 0 0 1 .685-2.49 1.837 1.837 0 0 1 2.49.684 94.2 94.2 0 0 0 8.063 11.905 1.83 1.83 0 0 1-.289 2.566 1.816 1.816 0 0 1-1.136.394zm-14.46-25.4c-.737 0-1.43-.452-1.711-1.184a89.976 89.976 0 0 1-4.105-14.39 1.826 1.826 0 0 1 1.44-2.143 1.816 1.816 0 0 1 2.143 1.44 85.21 85.21 0 0 0 3.939 13.801 1.827 1.827 0 0 1-1.065 2.352 1.694 1.694 0 0 1-.641.124zm-5.826-28.652a1.825 1.825 0 0 1-1.82-1.711c-.19-2.984-.285-6.125-.285-9.333v-.742c.005-1.587.038-3.179.086-4.771a1.822 1.822 0 0 1 1.824-1.763h.062a1.824 1.824 0 0 1 1.763 1.887 151.556 151.556 0 0 0-.085 4.657v.732c0 3.132.095 6.192.28 9.1a1.822 1.822 0 0 1-1.706 1.939c-.038.005-.076.005-.119.005zM132.942 106.536c-2.789 0-5.536-.033-8.23-.099a1.82 1.82 0 0 1-1.777-1.873 1.822 1.822 0 0 1 1.825-1.777h.047c4.714.119 9.57.133 14.588.038 1.136-.062 1.844.779 1.863 1.787a1.824 1.824 0 0 1-1.791 1.863c-2.205.042-4.382.061-6.525.061zm21.146-.613a1.826 1.826 0 0 1-.1-3.649c4.724-.266 9.628-.623 14.579-1.06.979-.105 1.891.656 1.981 1.658a1.83 1.83 0 0 1-1.658 1.982 453.97 453.97 0 0 1-14.697 1.065c-.034.004-.072.004-.105.004zm-43.978-.228c-.048 0-.095 0-.148-.004a229.315 229.315 0 0 1-14.697-1.607 1.827 1.827 0 0 1-1.55-2.067c.143-.998 1.089-1.668 2.068-1.549 4.595.656 9.461 1.188 14.469 1.573a1.826 1.826 0 0 1 1.678 1.962 1.829 1.829 0 0 1-1.82 1.692zm73.207-2.333a1.827 1.827 0 0 1-.209-3.64 580.414 580.414 0 0 0 14.502-1.887c1.003-.157 1.925.551 2.067 1.55a1.828 1.828 0 0 1-1.549 2.067c-4.961.708-9.827 1.34-14.597 1.896a1.721 1.721 0 0 1-.214.014zM81.09 101.49c-.133 0-.266-.015-.399-.043a158.7 158.7 0 0 1-10.226-2.652 152.93 152.93 0 0 1-4.087-1.288 1.823 1.823 0 0 1-1.159-2.305 1.816 1.816 0 0 1 2.305-1.16c1.306.433 2.632.851 3.977 1.25 3.179.946 6.534 1.816 9.984 2.59a1.826 1.826 0 0 1-.394 3.607zm-27.732-9.381a1.85 1.85 0 0 1-.798-.186c-4.676-2.267-9.01-4.823-12.887-7.599a1.822 1.822 0 0 1-.423-2.547 1.817 1.817 0 0 1 2.547-.423c3.716 2.652 7.874 5.104 12.36 7.28a1.824 1.824 0 0 1 .846 2.439 1.83 1.83 0 0 1-1.645 1.036zm62.853-1.635a1.826 1.826 0 0 1-1.825-1.825v-.646c0-4.605-.185-9.282-.551-13.906a1.83 1.83 0 0 1 1.678-1.962c.969-.09 1.881.67 1.962 1.677.371 4.72.556 9.495.556 14.19v.647a1.818 1.818 0 0 1-1.82 1.825zM29.751 74.99c-.494 0-.988-.2-1.35-.594a63.612 63.612 0 0 1-8.776-12.242 1.828 1.828 0 0 1 .722-2.48 1.838 1.838 0 0 1 2.48.722 59.729 59.729 0 0 0 8.274 11.543c.68.741.627 1.9-.12 2.58-.35.314-.793.47-1.23.47zm84.113-13.796a1.824 1.824 0 0 1-1.797-1.516c-.845-4.966-1.934-9.714-3.226-14.114a1.825 1.825 0 0 1 1.235-2.267 1.81 1.81 0 0 1 2.267 1.236c1.335 4.533 2.452 9.419 3.326 14.523a1.827 1.827 0 0 1-1.805 2.138zM15.747 49.528a1.825 1.825 0 0 1-1.758-1.34 70.168 70.168 0 0 1-.637-2.48c-.646-2.747-.974-5.47-.974-8.094 0-1.573.114-3.15.352-4.685.152-.999 1.098-1.688 2.077-1.53a1.821 1.821 0 0 1 1.53 2.076 27.793 27.793 0 0 0-.31 4.14c0 2.342.3 4.78.88 7.251.185.79.385 1.573.599 2.348a1.822 1.822 0 0 1-1.758 2.314zm89.649-16.376c-.68 0-1.331-.385-1.644-1.036-2.181-4.553-4.7-8.62-7.494-12.085a1.822 1.822 0 0 1 .28-2.566 1.824 1.824 0 0 1 2.566.28c2.966 3.683 5.636 7.989 7.936 12.793.437.908.052 2-.855 2.438a1.925 1.925 0 0 1-.789.176zM20.281 21.704c-.385 0-.775-.12-1.107-.371a1.826 1.826 0 0 1-.347-2.557c2.932-3.85 6.776-7.247 11.433-10.103a1.83 1.83 0 0 1 2.509.603c.527.86.256 1.987-.604 2.51-4.272 2.613-7.779 5.712-10.435 9.2a1.81 1.81 0 0 1-1.45.718zm66.65-10.855a1.8 1.8 0 0 1-.999-.299c-3.868-2.538-8.178-4.4-12.796-5.541a1.825 1.825 0 0 1-1.336-2.21 1.835 1.835 0 0 1 2.21-1.335c5.023 1.24 9.708 3.27 13.928 6.035a1.826 1.826 0 0 1 .527 2.528 1.84 1.84 0 0 1-1.535.822zM44.628 6.192a1.826 1.826 0 0 1-.513-3.578c4.605-1.36 9.432-2.23 14.355-2.595L59.023 0c.902.043 1.843.78 1.862 1.792A1.826 1.826 0 0 1 59.1 3.655l-.4.014a65.103 65.103 0 0 0-13.542 2.447 1.937 1.937 0 0 1-.528.076z" fill="#0F90E1"/><defs><clipPath id="a"><path fill="#fff" transform="translate(0 140.288)" d="M0 0h458v254.995H0z"/></clipPath></defs></svg>